<svg id="icon-instagram" xmlns="http://www.w3.org/2000/svg" width="24" height="24" viewBox="0 0 24 24">
  <path id="square-instagram-brands-solid" d="M10.414,41.627a2.858,2.858,0,1,0,3.964.788A2.858,2.858,0,0,0,10.414,41.627Zm7.623-3.664a2.881,2.881,0,0,0-.986-.643,15.619,15.619,0,0,0-4.452-.348c-.22,0-.423.005-.6.005s-.386,0-.611-.005a15.352,15.352,0,0,0-4.441.348,2.933,2.933,0,0,0-.986.643,2.805,2.805,0,0,0-.643.986,15.855,15.855,0,0,0-.348,4.457c0,.22.005.423.005.595s0,.375-.005.595a15.855,15.855,0,0,0,.348,4.457,2.933,2.933,0,0,0,.643.986,2.805,2.805,0,0,0,.986.643,15.619,15.619,0,0,0,4.452.348c.22,0,.423-.005.6-.005s.386,0,.611.005a15.352,15.352,0,0,0,4.441-.348,2.933,2.933,0,0,0,.986-.643,2.805,2.805,0,0,0,.643-.986,15.357,15.357,0,0,0,.348-4.446c0-.225-.005-.434-.005-.611s0-.38.005-.611a15.39,15.39,0,0,0-.348-4.446h0a2.933,2.933,0,0,0-.643-.986Zm-3.595,2.384a15.922,15.922,0,1,1-.005,0Zm1.564-.07a1.066,1.066,0,0,1-.38-.461,1.031,1.031,0,0,1,.22-1.12.986.986,0,0,1,.525-.279,1.028,1.028,0,0,1,.595.059,1.055,1.055,0,0,1,.461.375,1.012,1.012,0,0,1,.171.568,1.08,1.08,0,0,1-.075.391,1.056,1.056,0,0,1-.22.332,1.013,1.013,0,0,1-.332.225.983.983,0,0,1-.391.08h0a1.012,1.012,0,0,1-.568-.171ZM24,35.429A3.432,3.432,0,0,0,20.571,32H3.429A3.432,3.432,0,0,0,0,35.429V52.571A3.432,3.432,0,0,0,3.429,56H20.571A3.432,3.432,0,0,0,24,52.571Zm-4.875,15.7a5.111,5.111,0,0,1-3.589,1.387c-1.414.08-5.657.08-7.071,0a5.111,5.111,0,0,1-3.589-1.387,5.082,5.082,0,0,1-1.382-3.589c-.08-1.414-.08-5.657,0-7.071a5.106,5.106,0,0,1,1.382-3.589,5.091,5.091,0,0,1,3.589-1.382c1.414-.08,5.657-.08,7.071,0a5.106,5.106,0,0,1,3.589,1.382,5.082,5.082,0,0,1,1.382,3.589c.08,1.409.08,5.646,0,7.066a5.106,5.106,0,0,1-1.382,3.589Z" transform="translate(0 -32)" fill="#17202a"/>
  <rect id="사각형_103" data-name="사각형 103" width="24" height="24" fill="none"/>
</svg>
