<svg id="icon-email" xmlns="http://www.w3.org/2000/svg" width="24" height="24" viewBox="0 0 24 24">
  <rect id="사각형_102" data-name="사각형 102" width="24" height="24" fill="none"/>
  <path id="envelope-solid" d="M2.063,64A2.163,2.163,0,0,0,0,66.25a2.326,2.326,0,0,0,.825,1.8l9.35,7.65a1.288,1.288,0,0,0,1.65,0l9.35-7.65A2.326,2.326,0,0,0,22,66.25,2.163,2.163,0,0,0,19.938,64ZM0,69.25V79a2.886,2.886,0,0,0,2.75,3h16.5A2.886,2.886,0,0,0,22,79V69.25L12.65,76.9a2.565,2.565,0,0,1-3.3,0Z" transform="translate(1 -61)" fill="#17202a"/>
</svg>
